<svg xmlns="http://www.w3.org/2000/svg" width="48" height="48" fill="#157eb3" xmlns:xlink="http://www.w3.org/1999/xlink" version="1.1" x="0px" y="0px" viewBox="0 0 1000 1000" enable-background="new 0 0 1000 1000" xml:space="preserve">
<g><path d="M500,10C229.7,10,10,229.7,10,500c0,270.3,219.7,490,490,490c270.3,0,490-219.7,490-490C990,229.7,770.3,10,500,10z M624.8,713.5c-16.5,19.6-36.1,36.1-56.7,51.6c-16.5,11.3-34,22.7-51.6,33c-11.3,7.2-23.7,6.2-36.1-1c-28.9-18.6-56.7-39.2-82.5-62.9c-7.2-7.2-14.4-14.4-20.6-20.6c-13.4-13.4-16.5-27.9-14.4-46.4c14.4-97,38.2-192.9,62.9-287.8c2.1-6.2,3.1-13.4,6.2-19.6c2.1-5.2,1-9.3-2.1-13.4c-17.5-24.8-29.9-52.6-40.2-80.5c-10.3-28.9,7.2-56.7,35.1-59.8c23.7-2.1,47.5-5.2,71.2-8.3c1,0,3.1,0,4.1,0c25.8,0,51.6,4.1,77.4,8.3c25.8,5.2,41.3,29.9,34,54.7c-9.3,30.9-22.7,59.8-42.3,86.7c-2.1,3.1-3.1,6.2-2.1,11.3c16.5,64,33,128.9,47.5,193.9c9.3,39.2,15.5,79.4,21.7,119.7C640.3,687.7,635.1,701.2,624.8,713.5z"/><path d="M601.1,598c-15.5-79.4-36.1-156.8-57.8-235.2c-2.1,0-4.1,0-6.2,0c-25.8,0-50.5,0-76.3,0c-4.1,0-6.2,1-7.2,5.2c-28.9,101.1-53.6,202.2-69.1,306.4c-1,9.3,1,16.5,7.2,22.7c27.9,30.9,60.9,55.7,95.9,77.4c8.3,5.2,15.5,4.1,21.7,0c14.4-9.3,28.9-19.6,43.3-29.9c20.6-14.4,39.2-32,56.7-50.5c4.1-5.2,7.2-10.3,6.2-16.5C610.4,650.6,606.3,623.8,601.1,598z"/><path d="M452.5,337c14.4,0,28.9,0,44.4,0c14.4,0,28.9,0,44.4,0c2.1,0,5.2-1,7.2-3.1c17.5-23.7,29.9-50.5,39.2-78.4c4.1-11.3-2.1-22.7-14.4-24.8c-21.7-4.1-43.3-7.2-65-8.3c-27.9-2.1-54.7,3.1-81.5,8.3c-14.4,3.1-20.6,13.4-16.5,26.8c8.3,26.8,19.6,52.6,36.1,76.3C447.4,334.9,450.5,337,452.5,337z"/></g>
</svg>